<?xml version="1.0" standalone="no"?><!DOCTYPE svg PUBLIC "-//W3C//DTD SVG 1.1//EN" "http://www.w3.org/Graphics/SVG/1.1/DTD/svg11.dtd"><svg t="1735114635694" class="icon" viewBox="0 0 1091 1024" version="1.1" xmlns="http://www.w3.org/2000/svg" p-id="3173" xmlns:xlink="http://www.w3.org/1999/xlink" width="213.0859375" height="200"><path d="M409.538349 0.727777h68.165921v68.165921h-68.165921zM273.19899 68.892194h68.16592v68.165921h-68.16592zM136.880681 205.227043h68.165921v68.16592H136.880681z" fill="#231815" p-id="3174"></path><path d="M205.039084 205.227043h68.16592v68.16592h-68.16592z" fill="#E83A3A" p-id="3175"></path><path d="M0.539818 409.726308h68.165921v68.165921H0.539818z" fill="#231815" p-id="3176"></path><path d="M68.71025 409.726308h68.16592v68.165921H68.71025zM136.880681 409.726308h68.165921v68.165921H136.880681z" fill="#FFFFFF" p-id="3177"></path><path d="M205.039084 409.726308h68.16592v68.165921h-68.16592z" fill="#FFFFFF" p-id="3178"></path><path d="M0.539818 546.05815h68.165921v68.16592H0.539818z" fill="#231815" p-id="3179"></path><path d="M68.71025 546.05815h68.16592v68.16592H68.71025z" fill="#FFFFFF" p-id="3180"></path><path d="M136.880681 546.05815h68.165921v68.16592H136.880681z" fill="#E83A3A" p-id="3181"></path><path d="M205.039084 546.05815h68.16592v68.16592h-68.16592z" fill="#E83A3A" p-id="3182"></path><path d="M1023.036147 546.05815h68.165921v68.16592h-68.165921z" fill="#231815" p-id="3183"></path><path d="M954.865715 546.05815h68.165921v68.16592h-68.165921z" fill="#E83A3A" p-id="3184"></path><path d="M886.696787 546.05815h68.165921v68.16592h-68.165921z" fill="#FFFFFF" p-id="3185"></path><path d="M818.536881 546.05815h68.165921v68.16592h-68.165921z" fill="#FFFFFF" p-id="3186"></path><path d="M954.865715 409.726308h68.165921v68.165921h-68.165921z" fill="#231815" p-id="3187"></path><path d="M886.696787 409.726308h68.165921v68.165921h-68.165921z" fill="#FFFFFF" p-id="3188"></path><path d="M818.536881 409.726308h68.165921v68.165921h-68.165921z" fill="#FFFFFF" p-id="3189"></path><path d="M886.696787 273.394467h68.165921v68.165921h-68.165921z" fill="#231815" p-id="3190"></path><path d="M818.536881 273.394467h68.165921v68.165921h-68.165921zM273.19899 137.059618h68.16592v68.165921h-68.16592zM273.19899 205.227043h68.16592v68.16592h-68.16592zM273.19899 273.394467h68.16592v68.165921h-68.16592z" fill="#E83A3A" p-id="3191"></path><path d="M273.19899 341.558884h68.16592v68.165921h-68.16592zM273.19899 409.726308h68.16592v68.165921h-68.16592z" fill="#E83A3A" p-id="3192"></path><path d="M273.19899 477.890725h68.16592v68.165921h-68.16592zM273.19899 546.05815h68.16592v68.16592h-68.16592z" fill="#E83A3A" p-id="3193"></path><path d="M273.19899 614.225574h68.16592v68.165921h-68.16592zM273.19899 682.392999h68.16592v68.16592h-68.16592z" fill="#231815" p-id="3194"></path><path d="M273.19899 750.557416h68.16592v68.16592h-68.16592z" fill="#FFFFFF" p-id="3195"></path><path d="M273.19899 818.72484h68.16592v68.165921h-68.16592z" fill="#FFDFD2" p-id="3196"></path><path d="M273.19899 886.889257h68.16592v68.165921h-68.16592zM136.880681 273.394467h68.165921v68.165921H136.880681z" fill="#231815" p-id="3197"></path><path d="M205.039084 273.394467h68.16592v68.165921h-68.16592z" fill="#E83A3A" p-id="3198"></path><path d="M0.539818 477.890725h68.165921v68.165921H0.539818z" fill="#231815" p-id="3199"></path><path d="M68.71025 477.890725h68.16592v68.165921H68.71025zM136.880681 477.890725h68.165921v68.165921H136.880681z" fill="#FFFFFF" p-id="3200"></path><path d="M205.039084 477.890725h68.16592v68.165921h-68.16592z" fill="#E83A3A" p-id="3201"></path><path d="M1023.036147 477.890725h68.165921v68.165921h-68.165921z" fill="#231815" p-id="3202"></path><path d="M954.865715 477.890725h68.165921v68.165921h-68.165921z" fill="#E83A3A" p-id="3203"></path><path d="M886.696787 477.890725h68.165921v68.165921h-68.165921z" fill="#FFFFFF" p-id="3204"></path><path d="M818.536881 477.890725h68.165921v68.165921h-68.165921z" fill="#FFFFFF" p-id="3205"></path><path d="M954.865715 341.558884h68.165921v68.165921h-68.165921z" fill="#231815" p-id="3206"></path><path d="M886.696787 341.558884h68.165921v68.165921h-68.165921z" fill="#E83A3A" p-id="3207"></path><path d="M818.536881 341.558884h68.165921v68.165921h-68.165921z" fill="#FFFFFF" p-id="3208"></path><path d="M886.696787 205.227043h68.165921v68.16592h-68.165921z" fill="#231815" p-id="3209"></path><path d="M818.536881 205.227043h68.165921v68.16592h-68.165921z" fill="#E83A3A" p-id="3210"></path><path d="M0.539818 614.225574h68.165921v68.165921H0.539818z" fill="#231815" p-id="3211"></path><path d="M68.71025 614.225574h68.16592v68.165921H68.71025zM136.880681 614.225574h68.165921v68.165921H136.880681z" fill="#E83A3A" p-id="3212"></path><path d="M205.039084 614.225574h68.16592v68.165921h-68.16592z" fill="#E83A3A" p-id="3213"></path><path d="M1023.036147 614.225574h68.165921v68.165921h-68.165921z" fill="#231815" p-id="3214"></path><path d="M954.865715 614.225574h68.165921v68.165921h-68.165921zM886.696787 614.225574h68.165921v68.165921h-68.165921z" fill="#E83A3A" p-id="3215"></path><path d="M818.536881 614.225574h68.165921v68.165921h-68.165921z" fill="#FFFFFF" p-id="3216"></path><path d="M205.039084 818.72484h68.16592v68.165921h-68.16592zM818.536881 818.72484h68.165921v68.165921h-68.165921zM0.539818 682.392999h68.165921v68.16592H0.539818z" fill="#231815" p-id="3217"></path><path d="M68.71025 682.392999h68.16592v68.16592H68.71025z" fill="#E83A3A" p-id="3218"></path><path d="M136.880681 682.392999h68.165921v68.16592H136.880681z" fill="#231815" p-id="3219"></path><path d="M205.039084 682.392999h68.16592v68.16592h-68.16592zM1023.036147 682.392999h68.165921v68.16592h-68.165921z" fill="#231815" p-id="3220"></path><path d="M954.865715 682.392999h68.165921v68.16592h-68.165921z" fill="#E83A3A" p-id="3221"></path><path d="M886.696787 682.392999h68.165921v68.16592h-68.165921z" fill="#231815" p-id="3222"></path><path d="M818.536881 682.392999h68.165921v68.16592h-68.165921zM205.039084 886.889257h68.16592v68.165921h-68.16592zM818.536881 886.889257h68.165921v68.165921h-68.165921zM273.19899 955.059689h68.16592v68.16592h-68.16592zM477.708781 955.059689h68.165921v68.16592h-68.165921zM68.71025 750.557416h68.16592v68.16592H68.71025z" fill="#231815" p-id="3223"></path><path d="M886.696787 750.557416h68.165921v68.16592h-68.165921z" fill="#231815" p-id="3224"></path><path d="M818.536881 750.557416h68.165921v68.16592h-68.165921zM341.367918 955.059689h68.16592v68.16592h-68.16592zM545.867184 955.059689h68.16592v68.16592h-68.16592zM682.208047 955.059689h68.165921v68.16592h-68.165921zM136.880681 750.557416h68.165921v68.16592H136.880681z" fill="#231815" p-id="3225"></path><path d="M205.039084 750.557416h68.16592v68.16592h-68.16592z" fill="#FFFFFF" p-id="3226"></path><path d="M954.865715 750.557416h68.165921v68.16592h-68.165921zM409.538349 955.059689h68.165921v68.16592h-68.165921zM614.037615 955.059689h68.165921v68.16592h-68.165921zM750.378479 955.059689h68.16592v68.16592h-68.16592zM68.71025 341.558884h68.16592v68.165921H68.71025z" fill="#231815" p-id="3227"></path><path d="M136.880681 341.558884h68.165921v68.165921H136.880681z" fill="#FFFFFF" p-id="3228"></path><path d="M205.039084 341.558884h68.16592v68.165921h-68.16592z" fill="#FFFFFF" p-id="3229"></path><path d="M205.039084 137.059618h68.16592v68.165921h-68.16592z" fill="#231815" p-id="3230"></path><path d="M545.867184 68.892194h68.16592v68.165921h-68.16592zM545.867184 137.059618h68.16592v68.165921h-68.16592z" fill="#E83A3A" p-id="3231"></path><path d="M545.867184 205.227043h68.16592v68.16592h-68.16592zM545.867184 273.394467h68.16592v68.165921h-68.16592z" fill="#FFFFFF" p-id="3232"></path><path d="M545.867184 341.558884h68.16592v68.165921h-68.16592zM545.867184 409.726308h68.16592v68.165921h-68.16592z" fill="#E83A3A" p-id="3233"></path><path d="M545.867184 477.890725h68.16592v68.165921h-68.16592zM545.867184 546.05815h68.16592v68.16592h-68.16592z" fill="#E83A3A" p-id="3234"></path><path d="M545.867184 614.225574h68.16592v68.165921h-68.16592z" fill="#231815" p-id="3235"></path><path d="M545.867184 682.392999h68.16592v68.16592h-68.16592z" fill="#FFDFD2" p-id="3236"></path><path d="M545.867184 750.557416h68.16592v68.16592h-68.16592zM545.867184 818.72484h68.16592v68.165921h-68.16592z" fill="#FFFFFF" p-id="3237"></path><path d="M545.867184 886.889257h68.16592v68.165921h-68.16592z" fill="#FFDFD2" p-id="3238"></path><path d="M477.708781 0.727777h68.165921v68.165921h-68.165921zM341.367918 68.892194h68.16592v68.165921h-68.16592z" fill="#231815" p-id="3239"></path><path d="M341.367918 137.059618h68.16592v68.165921h-68.16592z" fill="#E83A3A" p-id="3240"></path><path d="M341.367918 205.227043h68.16592v68.16592h-68.16592zM341.367918 273.394467h68.16592v68.165921h-68.16592z" fill="#FFFFFF" p-id="3241"></path><path d="M341.367918 341.558884h68.16592v68.165921h-68.16592zM341.367918 409.726308h68.16592v68.165921h-68.16592z" fill="#E83A3A" p-id="3242"></path><path d="M341.367918 477.890725h68.16592v68.165921h-68.16592zM341.367918 546.05815h68.16592v68.16592h-68.16592z" fill="#E83A3A" p-id="3243"></path><path d="M341.367918 614.225574h68.16592v68.165921h-68.16592z" fill="#231815" p-id="3244"></path><path d="M341.367918 682.392999h68.16592v68.16592h-68.16592z" fill="#FFDFD2" p-id="3245"></path><path d="M341.367918 750.557416h68.16592v68.16592h-68.16592zM341.367918 818.72484h68.16592v68.165921h-68.16592z" fill="#FFFFFF" p-id="3246"></path><path d="M341.367918 886.889257h68.16592v68.165921h-68.16592z" fill="#FFDFD2" p-id="3247"></path><path d="M614.037615 68.892194h68.165921v68.165921h-68.165921zM614.037615 137.059618h68.165921v68.165921h-68.165921zM614.037615 205.227043h68.165921v68.16592h-68.165921zM614.037615 273.394467h68.165921v68.165921h-68.165921z" fill="#E83A3A" p-id="3248"></path><path d="M614.037615 341.558884h68.165921v68.165921h-68.165921z" fill="#E83A3A" p-id="3249"></path><path d="M614.037615 409.726308h68.165921v68.165921h-68.165921z" fill="#FFFFFF" p-id="3250"></path><path d="M614.037615 477.890725h68.165921v68.165921h-68.165921zM614.037615 546.05815h68.165921v68.16592h-68.165921z" fill="#FFFFFF" p-id="3251"></path><path d="M614.037615 614.225574h68.165921v68.165921h-68.165921zM614.037615 682.392999h68.165921v68.16592h-68.165921z" fill="#231815" p-id="3252"></path><path d="M614.037615 750.557416h68.165921v68.16592h-68.165921z" fill="#231815" p-id="3253"></path><path d="M614.037615 818.72484h68.165921v68.165921h-68.165921z" fill="#FFFFFF" p-id="3254"></path><path d="M614.037615 886.889257h68.165921v68.165921h-68.165921z" fill="#FFDFD2" p-id="3255"></path><path d="M545.867184 0.727777h68.16592v68.165921h-68.16592z" fill="#231815" p-id="3256"></path><path d="M409.538349 68.892194h68.165921v68.165921h-68.165921z" fill="#E83A3A" p-id="3257"></path><path d="M409.538349 137.059618h68.165921v68.165921h-68.165921zM409.538349 205.227043h68.165921v68.16592h-68.165921zM409.538349 273.394467h68.165921v68.165921h-68.165921z" fill="#FFFFFF" p-id="3258"></path><path d="M409.538349 341.558884h68.165921v68.165921h-68.165921z" fill="#FFFFFF" p-id="3259"></path><path d="M409.538349 409.726308h68.165921v68.165921h-68.165921z" fill="#E83A3A" p-id="3260"></path><path d="M409.538349 477.890725h68.165921v68.165921h-68.165921zM409.538349 546.05815h68.165921v68.16592h-68.165921z" fill="#E83A3A" p-id="3261"></path><path d="M409.538349 614.225574h68.165921v68.165921h-68.165921zM409.538349 682.392999h68.165921v68.16592h-68.165921z" fill="#231815" p-id="3262"></path><path d="M409.538349 750.557416h68.165921v68.16592h-68.165921z" fill="#231815" p-id="3263"></path><path d="M409.538349 818.72484h68.165921v68.165921h-68.165921z" fill="#FFFFFF" p-id="3264"></path><path d="M409.538349 886.889257h68.165921v68.165921h-68.165921z" fill="#FFDFD2" p-id="3265"></path><path d="M682.208047 68.892194h68.165921v68.165921h-68.165921z" fill="#231815" p-id="3266"></path><path d="M682.208047 137.059618h68.165921v68.165921h-68.165921z" fill="#FFFFFF" p-id="3267"></path><path d="M682.208047 205.227043h68.165921v68.16592h-68.165921zM682.208047 273.394467h68.165921v68.165921h-68.165921z" fill="#E83A3A" p-id="3268"></path><path d="M682.208047 341.558884h68.165921v68.165921h-68.165921zM682.208047 409.726308h68.165921v68.165921h-68.165921z" fill="#FFFFFF" p-id="3269"></path><path d="M682.208047 477.890725h68.165921v68.165921h-68.165921zM682.208047 546.05815h68.165921v68.16592h-68.165921z" fill="#FFFFFF" p-id="3270"></path><path d="M682.208047 614.225574h68.165921v68.165921h-68.165921z" fill="#231815" p-id="3271"></path><path d="M682.208047 682.392999h68.165921v68.16592h-68.165921z" fill="#FFDFD2" p-id="3272"></path><path d="M682.208047 750.557416h68.165921v68.16592h-68.165921zM682.208047 818.72484h68.165921v68.165921h-68.165921z" fill="#FFFFFF" p-id="3273"></path><path d="M682.208047 886.889257h68.165921v68.165921h-68.165921z" fill="#FFDFD2" p-id="3274"></path><path d="M614.037615 0.727777h68.165921v68.165921h-68.165921z" fill="#231815" p-id="3275"></path><path d="M477.708781 68.892194h68.165921v68.165921h-68.165921z" fill="#E83A3A" p-id="3276"></path><path d="M477.708781 137.059618h68.165921v68.165921h-68.165921zM477.708781 205.227043h68.165921v68.16592h-68.165921zM477.708781 273.394467h68.165921v68.165921h-68.165921z" fill="#FFFFFF" p-id="3277"></path><path d="M477.708781 341.558884h68.165921v68.165921h-68.165921z" fill="#FFFFFF" p-id="3278"></path><path d="M477.708781 409.726308h68.165921v68.165921h-68.165921z" fill="#E83A3A" p-id="3279"></path><path d="M477.708781 477.890725h68.165921v68.165921h-68.165921zM477.708781 546.05815h68.165921v68.16592h-68.165921z" fill="#E83A3A" p-id="3280"></path><path d="M477.708781 614.225574h68.165921v68.165921h-68.165921z" fill="#231815" p-id="3281"></path><path d="M477.708781 682.392999h68.165921v68.16592h-68.165921z" fill="#FFDFD2" p-id="3282"></path><path d="M477.708781 750.557416h68.165921v68.16592h-68.165921zM477.708781 818.72484h68.165921v68.165921h-68.165921z" fill="#FFFFFF" p-id="3283"></path><path d="M477.708781 886.889257h68.165921v68.165921h-68.165921z" fill="#FFDFD2" p-id="3284"></path><path d="M750.378479 68.892194h68.16592v68.165921h-68.16592z" fill="#231815" p-id="3285"></path><path d="M750.378479 137.059618h68.16592v68.165921h-68.16592z" fill="#FFFFFF" p-id="3286"></path><path d="M750.378479 205.227043h68.16592v68.16592h-68.16592zM750.378479 273.394467h68.16592v68.165921h-68.16592z" fill="#E83A3A" p-id="3287"></path><path d="M750.378479 341.558884h68.16592v68.165921h-68.16592zM750.378479 409.726308h68.16592v68.165921h-68.16592z" fill="#FFFFFF" p-id="3288"></path><path d="M750.378479 477.890725h68.16592v68.165921h-68.16592zM750.378479 546.05815h68.16592v68.16592h-68.16592z" fill="#FFFFFF" p-id="3289"></path><path d="M750.378479 614.225574h68.16592v68.165921h-68.16592zM750.378479 682.392999h68.16592v68.16592h-68.16592z" fill="#231815" p-id="3290"></path><path d="M750.378479 750.557416h68.16592v68.16592h-68.16592z" fill="#FFFFFF" p-id="3291"></path><path d="M750.378479 818.72484h68.16592v68.165921h-68.16592z" fill="#FFDFD2" p-id="3292"></path><path d="M750.378479 886.889257h68.16592v68.165921h-68.16592zM818.536881 137.059618h68.165921v68.165921h-68.165921z" fill="#231815" p-id="3293"></path></svg>