<?xml version="1.0" standalone="no"?><!DOCTYPE svg PUBLIC "-//W3C//DTD SVG 1.1//EN" "http://www.w3.org/Graphics/SVG/1.1/DTD/svg11.dtd"><svg t="1735111629739" class="icon" viewBox="0 0 1024 1024" version="1.1" xmlns="http://www.w3.org/2000/svg" p-id="3173" xmlns:xlink="http://www.w3.org/1999/xlink" width="200" height="200"><path d="M326.387953 0.752941h211.568941v54.3488H326.387953zM539.458259 56.609129h52.279717v52.279718h-52.279717z" fill="#000000" p-id="3174"></path><path d="M485.681694 56.609129h52.279718v52.279718h-52.279718zM431.894588 56.609129h52.279718v52.279718h-52.279718zM378.105976 56.609129h52.279718v52.279718h-52.279718zM324.317365 56.609129h52.279717v52.279718h-52.279717z" fill="#FD0000" p-id="3175"></path><path d="M270.528753 56.609129h52.279718v52.279718h-52.279718z" fill="#000000" p-id="3176"></path><path d="M270.528753 110.394729h52.279718v52.279718h-52.279718zM270.528753 164.178824h52.279718v52.279717h-52.279718z" fill="#FD0000" p-id="3177"></path><path d="M270.528753 217.964424h52.279718v52.279717h-52.279718z" fill="#000000" p-id="3178"></path><path d="M270.528753 271.750024h52.279718v52.279717h-52.279718z" fill="#FD0000" p-id="3179"></path><path d="M270.528753 325.538635h52.279718v52.279718h-52.279718zM270.528753 379.324235h52.279718v52.279718h-52.279718zM270.528753 433.108329h52.279718v52.279718h-52.279718z" fill="#FFFFFF" p-id="3180"></path><path d="M270.528753 486.893929h52.279718v52.279718h-52.279718zM270.528753 540.679529h52.279718v52.279718h-52.279718zM270.528753 594.465129h52.279718v52.279718h-52.279718z" fill="#FBD5B5" p-id="3181"></path><path d="M270.528753 648.252235h52.279718v52.279718h-52.279718zM216.753694 110.394729h52.279718v52.279718H216.753694zM216.753694 164.178824h52.279718v52.279717H216.753694zM216.753694 217.964424h52.279718v52.279717H216.753694z" fill="#000000" p-id="3182"></path><path d="M216.753694 271.750024h52.279718v52.279717H216.753694z" fill="#FD0000" p-id="3183"></path><path d="M216.753694 325.538635h52.279718v52.279718H216.753694z" fill="#000000" p-id="3184"></path><path d="M216.753694 379.324235h52.279718v52.279718H216.753694z" fill="#FFFFFF" p-id="3185"></path><path d="M216.753694 433.108329h52.279718v52.279718H216.753694z" fill="#000000" p-id="3186"></path><path d="M216.753694 486.893929h52.279718v52.279718H216.753694zM216.753694 540.679529h52.279718v52.279718H216.753694z" fill="#FBD5B5" p-id="3187"></path><path d="M216.753694 594.465129h52.279718v52.279718H216.753694zM216.753694 648.252235h52.279718v52.279718H216.753694zM162.965082 486.893929h52.279718v52.279718H162.965082zM162.965082 540.679529h52.279718v52.279718H162.965082zM162.965082 594.465129h52.279718v52.279718H162.965082zM162.965082 217.964424h52.279718v52.279717H162.965082z" fill="#000000" p-id="3188"></path><path d="M162.965082 271.750024h52.279718v52.279717H162.965082z" fill="#FD0000" p-id="3189"></path><path d="M162.965082 325.538635h52.279718v52.279718H162.965082zM109.176471 271.750024h52.279717v52.279717H109.176471z" fill="#000000" p-id="3190"></path><path d="M324.317365 110.394729h52.279717v52.279718h-52.279717zM324.317365 164.178824h52.279717v52.279717h-52.279717z" fill="#FD0000" p-id="3191"></path><path d="M324.317365 217.964424h52.279717v52.279717h-52.279717z" fill="#000000" p-id="3192"></path><path d="M324.317365 271.750024h52.279717v52.279717h-52.279717z" fill="#FD0000" p-id="3193"></path><path d="M324.317365 325.538635h52.279717v52.279718h-52.279717z" fill="#FFFFFF" p-id="3194"></path><path d="M324.317365 379.324235h52.279717v52.279718h-52.279717zM324.317365 433.108329h52.279717v52.279718h-52.279717z" fill="#000000" p-id="3195"></path><path d="M324.317365 486.893929h52.279717v52.279718h-52.279717zM324.317365 540.679529h52.279717v52.279718h-52.279717zM324.317365 594.465129h52.279717v52.279718h-52.279717z" fill="#FBD5B5" p-id="3196"></path><path d="M324.317365 648.252235h52.279717v52.279718h-52.279717z" fill="#000000" p-id="3197"></path><path d="M378.105976 110.394729h52.279718v52.279718h-52.279718zM378.105976 164.178824h52.279718v52.279717h-52.279718z" fill="#FD0000" p-id="3198"></path><path d="M378.105976 217.964424h52.279718v52.279717h-52.279718z" fill="#000000" p-id="3199"></path><path d="M378.105976 271.750024h52.279718v52.279717h-52.279718z" fill="#FD0000" p-id="3200"></path><path d="M378.105976 325.538635h52.279718v52.279718h-52.279718zM378.105976 379.324235h52.279718v52.279718h-52.279718zM378.105976 433.108329h52.279718v52.279718h-52.279718zM378.105976 486.893929h52.279718v52.279718h-52.279718zM378.105976 540.679529h52.279718v52.279718h-52.279718zM378.105976 594.465129h52.279718v52.279718h-52.279718z" fill="#FBD5B5" p-id="3201"></path><path d="M378.105976 648.252235h52.279718v52.279718h-52.279718z" fill="#000000" p-id="3202"></path><path d="M431.894588 110.394729h52.279718v52.279718h-52.279718zM431.894588 164.178824h52.279718v52.279717h-52.279718z" fill="#FD0000" p-id="3203"></path><path d="M431.894588 217.964424h52.279718v52.279717h-52.279718z" fill="#000000" p-id="3204"></path><path d="M431.894588 271.750024h52.279718v52.279717h-52.279718z" fill="#FD0000" p-id="3205"></path><path d="M431.894588 325.538635h52.279718v52.279718h-52.279718z" fill="#FFFFFF" p-id="3206"></path><path d="M431.894588 379.324235h52.279718v52.279718h-52.279718zM431.894588 433.108329h52.279718v52.279718h-52.279718z" fill="#000000" p-id="3207"></path><path d="M431.894588 486.893929h52.279718v52.279718h-52.279718zM431.894588 540.679529h52.279718v52.279718h-52.279718z" fill="#FBD5B5" p-id="3208"></path><path d="M431.894588 594.465129h52.279718v52.279718h-52.279718zM431.894588 648.252235h52.279718v52.279718h-52.279718z" fill="#000000" p-id="3209"></path><path d="M485.681694 110.394729h52.279718v52.279718h-52.279718zM485.681694 164.178824h52.279718v52.279717h-52.279718zM485.681694 217.964424h52.279718v52.279717h-52.279718z" fill="#FD0000" p-id="3210"></path><path d="M485.681694 271.750024h52.279718v52.279717h-52.279718z" fill="#000000" p-id="3211"></path><path d="M485.681694 325.538635h52.279718v52.279718h-52.279718zM485.681694 379.324235h52.279718v52.279718h-52.279718zM485.681694 433.108329h52.279718v52.279718h-52.279718z" fill="#FFFFFF" p-id="3212"></path><path d="M485.681694 486.893929h52.279718v52.279718h-52.279718z" fill="#FBD5B5" p-id="3213"></path><path d="M485.681694 540.679529h52.279718v52.279718h-52.279718zM485.681694 594.465129h52.279718v52.279718h-52.279718zM485.681694 648.252235h52.279718v52.279718h-52.279718z" fill="#000000" p-id="3214"></path><path d="M539.458259 110.394729h52.279717v52.279718h-52.279717zM539.458259 164.178824h52.279717v52.279717h-52.279717zM539.458259 217.964424h52.279717v52.279717h-52.279717zM539.458259 271.750024h52.279717v52.279717h-52.279717z" fill="#FD0000" p-id="3215"></path><path d="M539.458259 325.538635h52.279717v52.279718h-52.279717z" fill="#000000" p-id="3216"></path><path d="M539.458259 379.324235h52.279717v52.279718h-52.279717zM539.458259 433.108329h52.279717v52.279718h-52.279717zM539.458259 486.893929h52.279717v52.279718h-52.279717zM539.458259 540.679529h52.279717v52.279718h-52.279717z" fill="#FBD5B5" p-id="3217"></path><path d="M539.458259 594.465129h52.279717v52.279718h-52.279717z" fill="#000000" p-id="3218"></path><path d="M539.458259 648.252235h52.279717v52.279718h-52.279717z" fill="#FBD5B5" p-id="3219"></path><path d="M593.246871 110.394729h52.279717v52.279718h-52.279717zM593.246871 164.178824h52.279717v52.279717h-52.279717zM593.246871 217.964424h52.279717v52.279717h-52.279717zM593.246871 271.750024h52.279717v52.279717h-52.279717z" fill="#FD0000" p-id="3220"></path><path d="M593.246871 325.538635h52.279717v52.279718h-52.279717z" fill="#000000" p-id="3221"></path><path d="M593.246871 379.324235h52.279717v52.279718h-52.279717zM593.246871 433.108329h52.279717v52.279718h-52.279717z" fill="#FBD5B5" p-id="3222"></path><path d="M593.246871 486.893929h52.279717v52.279718h-52.279717z" fill="#000000" p-id="3223"></path><path d="M593.246871 540.679529h52.279717v52.279718h-52.279717zM593.246871 594.465129h52.279717v52.279718h-52.279717zM593.246871 648.252235h52.279717v52.279718h-52.279717z" fill="#FBD5B5" p-id="3224"></path><path d="M593.246871 56.609129h52.279717v52.279718h-52.279717zM647.035482 110.394729h52.279718v52.279718h-52.279718z" fill="#000000" p-id="3225"></path><path d="M647.035482 164.178824h52.279718v52.279717h-52.279718zM647.035482 217.964424h52.279718v52.279717h-52.279718zM647.035482 271.750024h52.279718v52.279717h-52.279718zM647.035482 325.538635h52.279718v52.279718h-52.279718z" fill="#FD0000" p-id="3226"></path><path d="M647.035482 379.324235h52.279718v52.279718h-52.279718zM647.035482 433.108329h52.279718v52.279718h-52.279718zM647.035482 486.893929h52.279718v52.279718h-52.279718zM647.035482 540.679529h52.279718v52.279718h-52.279718z" fill="#000000" p-id="3227"></path><path d="M647.035482 594.465129h52.279718v52.279718h-52.279718zM647.035482 648.252235h52.279718v52.279718h-52.279718z" fill="#FBD5B5" p-id="3228"></path><path d="M700.824094 217.964424h52.279718v52.279717h-52.279718zM700.824094 271.750024h52.279718v52.279717h-52.279718zM700.824094 325.538635h52.279718v52.279718h-52.279718z" fill="#FD0000" p-id="3229"></path><path d="M700.824094 379.324235h52.279718v52.279718h-52.279718zM700.824094 433.108329h52.279718v52.279718h-52.279718z" fill="#000000" p-id="3230"></path><path d="M700.824094 486.893929h52.279718v52.279718h-52.279718zM700.824094 540.679529h52.279718v52.279718h-52.279718zM700.824094 594.465129h52.279718v52.279718h-52.279718z" fill="#FBD5B5" p-id="3231"></path><path d="M700.824094 648.252235h52.279718v52.279718h-52.279718zM700.824094 164.178824h52.279718v52.279717h-52.279718zM754.6112 217.964424h52.279718v52.279717h-52.279718z" fill="#000000" p-id="3232"></path><path d="M754.6112 271.750024h52.279718v52.279717h-52.279718zM754.6112 325.538635h52.279718v52.279718h-52.279718zM754.6112 379.324235h52.279718v52.279718h-52.279718z" fill="#FD0000" p-id="3233"></path><path d="M754.6112 433.108329h52.279718v52.279718h-52.279718z" fill="#000000" p-id="3234"></path><path d="M754.6112 486.893929h52.279718v52.279718h-52.279718zM754.6112 540.679529h52.279718v52.279718h-52.279718z" fill="#FBD5B5" p-id="3235"></path><path d="M808.387765 217.964424h52.279717v52.279717H808.387765z" fill="#000000" p-id="3236"></path><path d="M808.387765 271.750024h52.279717v52.279717H808.387765zM808.387765 325.538635h52.279717v52.279718H808.387765zM808.387765 379.324235h52.279717v52.279718H808.387765z" fill="#FD0000" p-id="3237"></path><path d="M862.176376 271.750024h52.279718v52.279717h-52.279718zM862.176376 325.538635h52.279718v52.279718h-52.279718zM862.176376 379.324235h52.279718v52.279718h-52.279718zM808.387765 433.108329h52.279717v52.279718H808.387765zM808.387765 486.893929h52.279717v52.279718H808.387765zM808.387765 540.679529h52.279717v52.279718H808.387765zM754.6112 594.465129h52.279718v52.279718h-52.279718zM754.6112 648.252235h52.279718v52.279718h-52.279718zM700.824094 702.037835h52.279718v52.279718h-52.279718z" fill="#000000" p-id="3238"></path><path d="M700.824094 755.823435h52.279718v52.279718h-52.279718z" fill="#FD0000" p-id="3239"></path><path d="M754.6112 755.823435h52.279718v52.279718h-52.279718zM808.387765 809.609035h52.279717v52.279718H808.387765zM808.387765 863.394635h52.279717v52.279718H808.387765z" fill="#000000" p-id="3240"></path><path d="M808.387765 917.181741h52.279717v52.279718H808.387765z" fill="#FD0000" p-id="3241"></path><path d="M862.176376 917.181741h52.279718v52.279718h-52.279718zM862.176376 970.967341h52.279718V1023.247059h-52.279718z" fill="#000000" p-id="3242"></path><path d="M808.387765 970.967341h52.279717V1023.247059H808.387765zM754.6112 970.967341h52.279718V1023.247059h-52.279718zM754.6112 917.181741h52.279718v52.279718h-52.279718zM754.6112 863.394635h52.279718v52.279718h-52.279718zM754.6112 809.609035h52.279718v52.279718h-52.279718zM700.824094 970.967341h52.279718V1023.247059h-52.279718zM700.824094 917.181741h52.279718v52.279718h-52.279718zM700.824094 863.394635h52.279718v52.279718h-52.279718zM700.824094 809.609035h52.279718v52.279718h-52.279718zM647.035482 970.967341h52.279718V1023.247059h-52.279718zM647.035482 917.181741h52.279718v52.279718h-52.279718zM647.035482 863.394635h52.279718v52.279718h-52.279718zM647.035482 809.609035h52.279718v52.279718h-52.279718zM647.035482 755.823435h52.279718v52.279718h-52.279718z" fill="#FD0000" p-id="3243"></path><path d="M647.035482 702.037835h52.279718v52.279718h-52.279718z" fill="#000000" p-id="3244"></path><path d="M593.246871 970.967341h52.279717V1023.247059h-52.279717z" fill="#FFFFFF" p-id="3245"></path><path d="M593.246871 917.181741h52.279717v52.279718h-52.279717zM593.246871 863.394635h52.279717v52.279718h-52.279717zM593.246871 809.609035h52.279717v52.279718h-52.279717z" fill="#0072C1" p-id="3246"></path><path d="M593.246871 755.823435h52.279717v52.279718h-52.279717zM593.246871 702.037835h52.279717v52.279718h-52.279717z" fill="#000000" p-id="3247"></path><path d="M539.458259 970.967341h52.279717V1023.247059h-52.279717z" fill="#FFFFFF" p-id="3248"></path><path d="M539.458259 917.181741h52.279717v52.279718h-52.279717z" fill="#0072C1" p-id="3249"></path><path d="M539.458259 863.394635h52.279717v52.279718h-52.279717zM539.458259 809.609035h52.279717v52.279718h-52.279717z" fill="#FD0000" p-id="3250"></path><path d="M539.458259 755.823435h52.279717v52.279718h-52.279717z" fill="#000000" p-id="3251"></path><path d="M539.458259 702.037835h52.279717v52.279718h-52.279717z" fill="#FBD5B5" p-id="3252"></path><path d="M485.681694 970.967341h52.279718V1023.247059h-52.279718zM485.681694 917.181741h52.279718v52.279718h-52.279718z" fill="#0072C1" p-id="3253"></path><path d="M485.681694 863.394635h52.279718v52.279718h-52.279718zM485.681694 809.609035h52.279718v52.279718h-52.279718z" fill="#FD0000" p-id="3254"></path><path d="M485.681694 755.823435h52.279718v52.279718h-52.279718z" fill="#000000" p-id="3255"></path><path d="M485.681694 702.037835h52.279718v52.279718h-52.279718z" fill="#FBD5B5" p-id="3256"></path><path d="M431.894588 970.967341h52.279718V1023.247059h-52.279718zM431.894588 917.181741h52.279718v52.279718h-52.279718z" fill="#0072C1" p-id="3257"></path><path d="M431.894588 863.394635h52.279718v52.279718h-52.279718zM431.894588 809.609035h52.279718v52.279718h-52.279718z" fill="#FD0000" p-id="3258"></path><path d="M431.894588 755.823435h52.279718v52.279718h-52.279718z" fill="#000000" p-id="3259"></path><path d="M431.894588 702.037835h52.279718v52.279718h-52.279718z" fill="#FBD5B5" p-id="3260"></path><path d="M378.105976 970.967341h52.279718V1023.247059h-52.279718zM378.105976 917.181741h52.279718v52.279718h-52.279718zM378.105976 863.394635h52.279718v52.279718h-52.279718zM378.105976 809.609035h52.279718v52.279718h-52.279718z" fill="#0072C1" p-id="3261"></path><path d="M378.105976 755.823435h52.279718v52.279718h-52.279718z" fill="#000000" p-id="3262"></path><path d="M378.105976 702.037835h52.279718v52.279718h-52.279718z" fill="#FBD5B5" p-id="3263"></path><path d="M324.317365 970.967341h52.279717V1023.247059h-52.279717z" fill="#FFFFFF" p-id="3264"></path><path d="M324.317365 917.181741h52.279717v52.279718h-52.279717z" fill="#000000" p-id="3265"></path><path d="M324.317365 863.394635h52.279717v52.279718h-52.279717zM324.317365 809.609035h52.279717v52.279718h-52.279717z" fill="#FD0000" p-id="3266"></path><path d="M324.317365 755.823435h52.279717v52.279718h-52.279717z" fill="#000000" p-id="3267"></path><path d="M324.317365 702.037835h52.279717v52.279718h-52.279717z" fill="#FBD5B5" p-id="3268"></path><path d="M270.528753 702.037835h52.279718v52.279718h-52.279718z" fill="#000000" p-id="3269"></path><path d="M270.528753 970.967341h52.279718V1023.247059h-52.279718zM270.528753 917.181741h52.279718v52.279718h-52.279718z" fill="#FD0000" p-id="3270"></path><path d="M270.528753 863.394635h52.279718v52.279718h-52.279718zM270.528753 809.609035h52.279718v52.279718h-52.279718zM216.753694 970.967341h52.279718V1023.247059H216.753694zM216.753694 917.181741h52.279718v52.279718H216.753694z" fill="#000000" p-id="3271"></path></svg>